<svg xmlns="http://www.w3.org/2000/svg" xmlns:xlink="http://www.w3.org/1999/xlink" width="6912" zoomAndPan="magnify" viewBox="0 0 5184 2592.000001" height="3456" preserveAspectRatio="xMidYMid meet" version="1.0"><defs><g/><clipPath id="dc90efdf04"><path d="M 494.054688 974.132812 L 774.273438 974.132812 L 774.273438 1585.472656 L 494.054688 1585.472656 Z M 494.054688 974.132812 " clip-rule="nonzero"/></clipPath><clipPath id="7184971675"><path d="M 190.257812 974.132812 L 470 974.132812 L 470 1585.472656 L 190.257812 1585.472656 Z M 190.257812 974.132812 " clip-rule="nonzero"/></clipPath><clipPath id="a4c9aa2437"><rect x="0" width="4136" y="0" height="887"/></clipPath></defs><path fill="#2563eb" d="M 494.535156 1617.085938 L 774.023438 1617.085938 L 494.535156 1383.671875 Z M 494.535156 1617.085938 " fill-opacity="1" fill-rule="nonzero"/><path fill="#2563eb" d="M 469.992188 1617.085938 L 469.992188 1383.671875 L 190.507812 1617.085938 Z M 469.992188 1617.085938 " fill-opacity="1" fill-rule="nonzero"/><g clip-path="url(#dc90efdf04)"><path fill="#2563eb" d="M 494.535156 1351.695312 L 774.183594 1585.242188 L 494.535156 973.996094 Z M 494.535156 1351.695312 " fill-opacity="1" fill-rule="nonzero"/></g><g clip-path="url(#7184971675)"><path fill="#2563eb" d="M 469.992188 1351.695312 L 469.992188 973.996094 L 190.347656 1585.242188 Z M 469.992188 1351.695312 " fill-opacity="1" fill-rule="nonzero"/></g><g transform="matrix(1, 0, 0, 1, 867, 852)"><g clip-path="url(#a4c9aa2437)"><g fill="#2563eb" fill-opacity="1"><g transform="translate(1.499217, 708.24206)"><g><path d="M 15.03125 0 L 201.859375 -533.296875 L 322.84375 -533.296875 L 512.890625 0 L 408.390625 0 L 313.890625 -277.75 C 304.585938 -306.613281 294.863281 -338.765625 284.71875 -374.203125 C 274.582031 -409.640625 263.3125 -450.382812 250.90625 -496.4375 L 272.375 -496.4375 C 260.207031 -450.144531 249.226562 -409.160156 239.4375 -373.484375 C 229.65625 -337.816406 220.351562 -305.90625 211.53125 -277.75 L 118.828125 0 Z M 124.203125 -131 L 124.203125 -208.3125 L 403.375 -208.3125 L 403.375 -131 Z M 124.203125 -131 "/></g></g><g transform="translate(529.422596, 708.24206)"><g><path d="M 51.546875 0 L 51.546875 -533.296875 L 158.203125 -533.296875 L 343.25 -238.734375 C 350.40625 -227.515625 358.21875 -214.445312 366.6875 -199.53125 C 375.15625 -184.625 383.984375 -168.039062 393.171875 -149.78125 C 402.359375 -131.53125 411.367188 -111.785156 420.203125 -90.546875 L 409.453125 -85.1875 C 407.785156 -104.269531 406.414062 -124.191406 405.34375 -144.953125 C 404.269531 -165.710938 403.429688 -185.515625 402.828125 -204.359375 C 402.234375 -223.210938 401.9375 -238.847656 401.9375 -251.265625 L 401.9375 -533.296875 L 498.578125 -533.296875 L 498.578125 0 L 391.5625 0 L 224.765625 -265.21875 C 215.222656 -280.488281 205.738281 -296.296875 196.3125 -312.640625 C 186.894531 -328.984375 176.695312 -347.535156 165.71875 -368.296875 C 154.738281 -389.054688 141.851562 -413.515625 127.0625 -441.671875 L 140.65625 -444.53125 C 142.332031 -418.519531 143.707031 -393.941406 144.78125 -370.796875 C 145.851562 -347.648438 146.6875 -327.070312 147.28125 -309.0625 C 147.875 -291.050781 148.171875 -276.554688 148.171875 -265.578125 L 148.171875 0 Z M 51.546875 0 "/></g></g><g transform="translate(1079.536654, 708.24206)"><g><path d="M 26.84375 -452.40625 L 26.84375 -533.296875 L 451.6875 -533.296875 L 451.6875 -452.40625 L 287.046875 -452.40625 L 287.046875 0 L 191.84375 0 L 191.84375 -452.40625 Z M 26.84375 -452.40625 "/></g></g></g><g fill="#2563eb" fill-opacity="1"><g transform="translate(1558.067884, 708.24206)"><g><path d="M 51.546875 0 L 51.546875 -533.296875 L 403.375 -533.296875 L 403.375 -452.40625 L 147.109375 -452.40625 L 147.109375 -309.59375 L 384.40625 -309.59375 L 384.40625 -229.78125 L 147.109375 -229.78125 L 147.109375 -80.890625 L 404.453125 -80.890625 L 404.453125 0 Z M 51.546875 0 "/></g></g></g><g fill="#2563eb" fill-opacity="1"><g transform="translate(2000.807618, 708.24206)"><g><path d="M 51.546875 0 L 51.546875 -533.296875 L 147.109375 -533.296875 L 147.109375 -80.890625 L 385.125 -80.890625 L 385.125 0 Z M 51.546875 0 "/></g></g></g><g fill="#2563eb" fill-opacity="1"><g transform="translate(2412.76673, 708.24206)"><g><path d="M 51.546875 0 L 51.546875 -533.296875 L 147.109375 -533.296875 L 147.109375 -80.890625 L 385.125 -80.890625 L 385.125 0 Z M 51.546875 0 "/></g></g></g><g fill="#2563eb" fill-opacity="1"><g transform="translate(2824.726134, 708.24206)"><g><path d="M 147.109375 -533.296875 L 147.109375 0 L 51.546875 0 L 51.546875 -533.296875 Z M 147.109375 -533.296875 "/></g></g></g><g fill="#2563eb" fill-opacity="1"><g transform="translate(3023.010505, 708.24206)"><g><path d="M 280.25 7.515625 C 233.476562 7.515625 191.539062 -3.457031 154.4375 -25.40625 C 117.332031 -47.363281 88.039062 -78.800781 66.5625 -119.71875 C 45.09375 -160.644531 34.359375 -209.503906 34.359375 -266.296875 C 34.359375 -323.554688 45.09375 -372.644531 66.5625 -413.5625 C 88.039062 -454.488281 117.332031 -485.925781 154.4375 -507.875 C 191.539062 -529.832031 233.476562 -540.8125 280.25 -540.8125 C 327.019531 -540.8125 368.894531 -529.832031 405.875 -507.875 C 442.863281 -485.925781 472.035156 -454.488281 493.390625 -413.5625 C 514.742188 -372.644531 525.421875 -323.554688 525.421875 -266.296875 C 525.421875 -209.503906 514.742188 -160.644531 493.390625 -119.71875 C 472.035156 -78.800781 442.863281 -47.363281 405.875 -25.40625 C 368.894531 -3.457031 327.019531 7.515625 280.25 7.515625 Z M 280.25 -78.03125 C 309.125 -78.03125 334.832031 -85.242188 357.375 -99.671875 C 379.925781 -114.109375 397.582031 -135.34375 410.34375 -163.375 C 423.113281 -191.414062 429.5 -225.722656 429.5 -266.296875 C 429.5 -307.097656 423.113281 -341.578125 410.34375 -369.734375 C 397.582031 -397.890625 379.925781 -419.179688 357.375 -433.609375 C 334.832031 -448.046875 309.125 -455.265625 280.25 -455.265625 C 251.132812 -455.265625 225.300781 -447.988281 202.75 -433.4375 C 180.207031 -418.882812 162.492188 -397.585938 149.609375 -369.546875 C 136.722656 -341.515625 130.28125 -307.097656 130.28125 -266.296875 C 130.28125 -225.722656 136.722656 -191.476562 149.609375 -163.5625 C 162.492188 -135.644531 180.207031 -114.410156 202.75 -99.859375 C 225.300781 -85.304688 251.132812 -78.03125 280.25 -78.03125 Z M 280.25 -78.03125 "/></g></g></g><g fill="#2563eb" fill-opacity="1"><g transform="translate(3583.146238, 708.24206)"><g><path d="M 51.546875 0 L 51.546875 -533.296875 L 158.203125 -533.296875 L 343.25 -238.734375 C 350.40625 -227.515625 358.21875 -214.445312 366.6875 -199.53125 C 375.15625 -184.625 383.984375 -168.039062 393.171875 -149.78125 C 402.359375 -131.53125 411.367188 -111.785156 420.203125 -90.546875 L 409.453125 -85.1875 C 407.785156 -104.269531 406.414062 -124.191406 405.34375 -144.953125 C 404.269531 -165.710938 403.429688 -185.515625 402.828125 -204.359375 C 402.234375 -223.210938 401.9375 -238.847656 401.9375 -251.265625 L 401.9375 -533.296875 L 498.578125 -533.296875 L 498.578125 0 L 391.5625 0 L 224.765625 -265.21875 C 215.222656 -280.488281 205.738281 -296.296875 196.3125 -312.640625 C 186.894531 -328.984375 176.695312 -347.535156 165.71875 -368.296875 C 154.738281 -389.054688 141.851562 -413.515625 127.0625 -441.671875 L 140.65625 -444.53125 C 142.332031 -418.519531 143.707031 -393.941406 144.78125 -370.796875 C 145.851562 -347.648438 146.6875 -327.070312 147.28125 -309.0625 C 147.875 -291.050781 148.171875 -276.554688 148.171875 -265.578125 L 148.171875 0 Z M 51.546875 0 "/></g></g></g></g></g></svg>