<svg xmlns="http://www.w3.org/2000/svg" xmlns:xlink="http://www.w3.org/1999/xlink" width="2000" zoomAndPan="magnify" viewBox="0 0 1500 1499.999933" height="2000" preserveAspectRatio="xMidYMid meet" version="1.0"><defs><g/><clipPath id="71c92e7b7e"><path d="M 765 662 L 1116 662 L 1116 954.75 L 765 954.75 Z M 765 662 " clip-rule="nonzero"/></clipPath><clipPath id="145366d9aa"><path d="M 384 662 L 735 662 L 735 954.75 L 384 954.75 Z M 384 662 " clip-rule="nonzero"/></clipPath><clipPath id="d36194d3a0"><path d="M 765 150 L 1116 150 L 1116 916 L 765 916 Z M 765 150 " clip-rule="nonzero"/></clipPath><clipPath id="9089d0f221"><path d="M 384 150 L 735 150 L 735 916 L 384 916 Z M 384 150 " clip-rule="nonzero"/></clipPath></defs><g clip-path="url(#71c92e7b7e)"><path fill="#2563eb" d="M 765.363281 955.054688 L 1115.316406 955.054688 L 765.363281 662.792969 Z M 765.363281 955.054688 " fill-opacity="1" fill-rule="nonzero"/></g><g clip-path="url(#145366d9aa)"><path fill="#2563eb" d="M 734.632812 955.054688 L 734.632812 662.792969 L 384.683594 955.054688 Z M 734.632812 955.054688 " fill-opacity="1" fill-rule="nonzero"/></g><g clip-path="url(#d36194d3a0)"><path fill="#2563eb" d="M 765.363281 622.753906 L 1115.515625 915.1875 L 765.363281 149.832031 Z M 765.363281 622.753906 " fill-opacity="1" fill-rule="nonzero"/></g><g clip-path="url(#9089d0f221)"><path fill="#2563eb" d="M 734.632812 622.753906 L 734.632812 149.832031 L 384.480469 915.1875 Z M 734.632812 622.753906 " fill-opacity="1" fill-rule="nonzero"/></g><g fill="#2563eb" fill-opacity="1"><g transform="translate(225.785169, 1190.036013)"><g><path d="M 3.8125 0 L 51.21875 -135.328125 L 81.921875 -135.328125 L 130.140625 0 L 103.625 0 L 79.65625 -70.484375 C 77.289062 -77.804688 74.820312 -85.960938 72.25 -94.953125 C 69.675781 -103.941406 66.816406 -114.28125 63.671875 -125.96875 L 69.109375 -125.96875 C 66.023438 -114.21875 63.238281 -103.816406 60.75 -94.765625 C 58.269531 -85.710938 55.910156 -77.617188 53.671875 -70.484375 L 30.15625 0 Z M 31.515625 -33.234375 L 31.515625 -52.859375 L 102.359375 -52.859375 L 102.359375 -33.234375 Z M 31.515625 -33.234375 "/></g></g><g transform="translate(359.745118, 1190.036013)"><g><path d="M 13.078125 0 L 13.078125 -135.328125 L 40.140625 -135.328125 L 87.09375 -60.578125 C 88.914062 -57.734375 90.898438 -54.414062 93.046875 -50.625 C 95.191406 -46.84375 97.429688 -42.632812 99.765625 -38 C 102.097656 -33.375 104.382812 -28.367188 106.625 -22.984375 L 103.90625 -21.609375 C 103.476562 -26.453125 103.128906 -31.507812 102.859375 -36.78125 C 102.585938 -42.050781 102.375 -47.078125 102.21875 -51.859375 C 102.0625 -56.640625 101.984375 -60.601562 101.984375 -63.75 L 101.984375 -135.328125 L 126.515625 -135.328125 L 126.515625 0 L 99.359375 0 L 57.03125 -67.296875 C 54.613281 -71.171875 52.207031 -75.179688 49.8125 -79.328125 C 47.425781 -83.472656 44.835938 -88.179688 42.046875 -93.453125 C 39.265625 -98.722656 35.992188 -104.929688 32.234375 -112.078125 L 35.6875 -112.796875 C 36.113281 -106.203125 36.460938 -99.96875 36.734375 -94.09375 C 37.003906 -88.21875 37.210938 -82.992188 37.359375 -78.421875 C 37.515625 -73.847656 37.59375 -70.171875 37.59375 -67.390625 L 37.59375 0 Z M 13.078125 0 "/></g></g><g transform="translate(499.335926, 1190.036013)"><g><path d="M 6.8125 -114.796875 L 6.8125 -135.328125 L 114.609375 -135.328125 L 114.609375 -114.796875 L 72.84375 -114.796875 L 72.84375 0 L 48.6875 0 L 48.6875 -114.796875 Z M 6.8125 -114.796875 "/></g></g><g transform="translate(620.762673, 1190.036013)"><g><path d="M 13.078125 0 L 13.078125 -135.328125 L 102.359375 -135.328125 L 102.359375 -114.796875 L 37.328125 -114.796875 L 37.328125 -78.5625 L 97.546875 -78.5625 L 97.546875 -58.3125 L 37.328125 -58.3125 L 37.328125 -20.53125 L 102.625 -20.53125 L 102.625 0 Z M 13.078125 0 "/></g></g><g transform="translate(733.107391, 1190.036013)"><g><path d="M 13.078125 0 L 13.078125 -135.328125 L 37.328125 -135.328125 L 37.328125 -20.53125 L 97.71875 -20.53125 L 97.71875 0 Z M 13.078125 0 "/></g></g><g transform="translate(837.641561, 1190.036013)"><g><path d="M 13.078125 0 L 13.078125 -135.328125 L 37.328125 -135.328125 L 37.328125 -20.53125 L 97.71875 -20.53125 L 97.71875 0 Z M 13.078125 0 "/></g></g><g transform="translate(942.175732, 1190.036013)"><g><path d="M 37.328125 -135.328125 L 37.328125 0 L 13.078125 0 L 13.078125 -135.328125 Z M 37.328125 -135.328125 "/></g></g><g transform="translate(992.490181, 1190.036013)"><g><path d="M 71.109375 1.90625 C 59.242188 1.90625 48.601562 -0.875 39.1875 -6.4375 C 29.769531 -12.007812 22.335938 -19.988281 16.890625 -30.375 C 11.441406 -40.757812 8.71875 -53.160156 8.71875 -67.578125 C 8.71875 -82.109375 11.441406 -94.5625 16.890625 -104.9375 C 22.335938 -115.320312 29.769531 -123.300781 39.1875 -128.875 C 48.601562 -134.445312 59.242188 -137.234375 71.109375 -137.234375 C 82.972656 -137.234375 93.597656 -134.445312 102.984375 -128.875 C 112.367188 -123.300781 119.769531 -115.320312 125.1875 -104.9375 C 130.613281 -94.5625 133.328125 -82.109375 133.328125 -67.578125 C 133.328125 -53.160156 130.613281 -40.757812 125.1875 -30.375 C 119.769531 -19.988281 112.367188 -12.007812 102.984375 -6.4375 C 93.597656 -0.875 82.972656 1.90625 71.109375 1.90625 Z M 71.109375 -19.796875 C 78.441406 -19.796875 84.96875 -21.625 90.6875 -25.28125 C 96.40625 -28.945312 100.882812 -34.335938 104.125 -41.453125 C 107.363281 -48.566406 108.984375 -57.273438 108.984375 -67.578125 C 108.984375 -77.921875 107.363281 -86.664062 104.125 -93.8125 C 100.882812 -100.957031 96.40625 -106.363281 90.6875 -110.03125 C 84.96875 -113.695312 78.441406 -115.53125 71.109375 -115.53125 C 63.722656 -115.53125 57.171875 -113.679688 51.453125 -109.984375 C 45.734375 -106.285156 41.238281 -100.878906 37.96875 -93.765625 C 34.695312 -86.648438 33.0625 -77.921875 33.0625 -67.578125 C 33.0625 -57.273438 34.695312 -48.582031 37.96875 -41.5 C 41.238281 -34.414062 45.734375 -29.023438 51.453125 -25.328125 C 57.171875 -21.640625 63.722656 -19.796875 71.109375 -19.796875 Z M 71.109375 -19.796875 "/></g></g><g transform="translate(1134.623958, 1190.036013)"><g><path d="M 13.078125 0 L 13.078125 -135.328125 L 40.140625 -135.328125 L 87.09375 -60.578125 C 88.914062 -57.734375 90.898438 -54.414062 93.046875 -50.625 C 95.191406 -46.84375 97.429688 -42.632812 99.765625 -38 C 102.097656 -33.375 104.382812 -28.367188 106.625 -22.984375 L 103.90625 -21.609375 C 103.476562 -26.453125 103.128906 -31.507812 102.859375 -36.78125 C 102.585938 -42.050781 102.375 -47.078125 102.21875 -51.859375 C 102.0625 -56.640625 101.984375 -60.601562 101.984375 -63.75 L 101.984375 -135.328125 L 126.515625 -135.328125 L 126.515625 0 L 99.359375 0 L 57.03125 -67.296875 C 54.613281 -71.171875 52.207031 -75.179688 49.8125 -79.328125 C 47.425781 -83.472656 44.835938 -88.179688 42.046875 -93.453125 C 39.265625 -98.722656 35.992188 -104.929688 32.234375 -112.078125 L 35.6875 -112.796875 C 36.113281 -106.203125 36.460938 -99.96875 36.734375 -94.09375 C 37.003906 -88.21875 37.210938 -82.992188 37.359375 -78.421875 C 37.515625 -73.847656 37.59375 -70.171875 37.59375 -67.390625 L 37.59375 0 Z M 13.078125 0 "/></g></g></g></svg>